<?xml version="1.0" encoding="utf-8"?>
<!-- Generator: Adobe Illustrator 18.0.0, SVG Export Plug-In . SVG Version: 6.00 Build 0)  -->
<!DOCTYPE svg PUBLIC "-//W3C//DTD SVG 1.1//EN" "http://www.w3.org/Graphics/SVG/1.1/DTD/svg11.dtd">
<svg xmlns="http://www.w3.org/2000/svg" xmlns:xlink="http://www.w3.org/1999/xlink" version="1.1" id="Слой_2" x="0px" y="0px" viewBox="286 188 1015 1200" enable-background="new 286 188 1015 1200" xml:space="preserve">
<path fill="#000000" stroke="" stroke-width="2" stroke-miterlimit="10" d="M1284,1310.2l-1.8,0.4l-102-528.1  c0.7-0.5,1.3-0.7,1.8-0.7c2.6,0,10-1.3,12-5c2-3.7,4.6-10.9,12-17.7c7.4-6.6,8.7-14.7,8.7-14.7s-1.3-10.7-0.7-13.3  c0.7-2.6,2.6-7.4,16-12.7c13.3-5.3,12.7-22.7,11.3-32.6c-1.3-10,12-36,14.7-52c2.7-16-8.1-38-6.1-39.3s12.7-14.7,0-38  c-12.7-23.4-19.3-66.7-22-79.3c-2.6-12.7-25.3-45.9-39.3-70.6c-14-24.7-49.4-50.7-68-63.3c-18.6-12.7-56-20.7-56-20.7  s-2.6-6.1-3.3-9.4s3.3-12.7,9.4-21.4c6.1-8.7,2-14,2-14s3.3-16.6,0-32.6c-3.3-16-36.7-40-44.6-44.6c-8-4.6-33.9-3.3-42.6-4  c-8.7-0.7-12.7,8-12.7,8s-7.4,0-12,0c-4.6,0-11.3,6.6-20.3,18c-9,11.3-8,23.4-4.6,28.6c2.8,4.5,3.6,10.1,3.2,13.3  c-0.4,0.5-0.7,0.8-1.2,1.2c-1.2,0.9-2.7,1.3-4,1.9c-2.8,1.2-5.9,3.3-9,3.1c1.3,1.5,3.1,2.6,5.2,2.6c-1.3-0.1-2.7,0.7-4.2,0.7  c1.3,1.8,3.3,3.7,5.3,5c-1.4,2.1-2.4,3.7-2.4,3.7s-10.3-2-6.1,11.3c2.3,7,16,27.3,16,27.3s-38,13.3-52,19.3  c-14,6.1-26.7,14-59.9,47.4s-56,92.7-57.3,98.6c-1.3,5.9-5.3,14.7-8,21.4c-2.6,6.6-19.3,51.3-19.9,72.6c-0.7,21.4,4,22.7,5.3,32.6  s-0.7,36.7-0.7,42s6.6,11.3,4.6,14.7c-2,3.3-5.3,11.3-5.3,11.3s-2-3.3-2-7.4c0-4-3.3-26.7-8-34.7c-4.6-8-6.6-26-8.7-36.7  s-9.4-38-9.4-50.7s-6.1-56-12-82c-6.1-26-27.3-40-45.3-51.3s-42.6-12-42.6-12l-6.6-12.3c0,0,2.6-11,6.1-23.6c3.3-12.7-2-26.7-4-32.6  c-0.5-1.5-0.2-3.8,0.4-6.4c1.1,0.5,1.9,0.6,3.1-1.2c1.4-2.1,1.8-4.3,1.3-6.6c0.2,0.1,0.9,0.2,1.3,0.5c0.6-1.2,1.4-3,1.9-4.3  c0.6-1.8-0.2-3.2,0.1-4.9c0.7-0.2,1.4-0.1,1.9,0.5c0.9-2.1,1.5-3,1.2-5.2c-0.5-3,1.3-2.5,3.3-1.4c-0.5-1.1,0-2.1-0.2-3.3  c-0.2-1.3-1.9-2.1-1.7-3.3c0.8-0.2,1.7,0.2,2.3,0.6c-0.2-2.8-1.1-4.7-3.4-6.5c1.1-0.1,1.9,0.7,3.1,0.6c-0.7-1.4-2.4-3.1-3.4-4.4  s-2-3.3-3.7-3.9c1.7,0.5,3.4,1.4,4.3,3.2c-0.1-1.9-0.2-3.3-1.3-5c-0.8-1.4-2.5-2-3.3-3.2c0.8-0.1,1.8,0,2.6-0.1  c0.1-3.4-4.5-6.1-6.6-7.8c0.7,0,0.9-0.1,1.5,0.2c-1.7-1.4-3.2-3.4-4.9-5c-0.8-0.8-4.3-3.1-4-4.2c0.7,0,1.3,0.2,1.9,0.6  c0-2.1-2.8-3.8-4.5-4.6c1.5-0.1,2.7,0.4,4.2,0.5c-1.7-1.2-3-3.3-5-4.2c-2.1-0.9-3.4,0.5-5.3,0.2c-1.9-0.2-2.4-2.5-3.4-3.6  c-0.2-0.2-1.9-1.2-1.9-1.3c-0.5-1.2,0.9-0.8,0.9-2c-0.9,0-1.9,0.5-2.8,0.2c-0.5-1.5-1.9-3.2-3.4-2.7c-0.5,0.1-1.1,1.2-1.5,1.5  c-0.6,0.4-2,1.1-2.7,0.9c-2.5-0.2-2-2.5-3.2-3.7c-1.1-1.1-1.1-1.1-3.1,0.9c-0.4-0.9-2.7-2.4-3.7-2.6c-2.3-0.6-2.4,0.7-4.6,0.6  c0.1,0.7-3.7,0.5-1.7,2.4c-2.5-3.1-6.6-5-9.4-1.3c1.3-0.7,4.5,0.5,3.9,2.4c-1.7,0.4-4.4-0.6-5.9-0.9c-0.9-0.2-1.2-0.7-2.4-0.7  c-1.1,0-1.9,0.7-3,0.6c0.5-0.4,0.7-1.2,0.9-1.5c-1.8-0.2-3.9,0.4-5.6,0.9c-1.4,0.6-3.1,2.5-4.4,2.6c-0.2-0.8,0.4-1.5,0.9-1.9  c-3.2,0.2-6.3,1.8-9.3,2.5c0.4-0.5,0.8-1.3,0.9-1.9c-1.9,0-3.8,2-5.6,2.6c0.1-0.5,0-1.2,0.2-1.5c-1.9,0.7-3.2,3-4.6,4.3  c0.1-0.7,0.5-1.5,0.6-2.3c-3,2.6-5.8,4.3-8.3,7.8c0.1-0.9-1.9-3.6-1.3-4.3c-1.3,2-6.6,9.4-4.9,12.6c-2.5,0.7-4.6,1.4-7.1,3.1  c-1.4,0.9-5.5,5.1-3.1,6.8c-1.2,2-4.2,2.8-5.9,3.8c-2,1.1-5.3,4.4-5.2,6.8c1.8-0.2,2,1.4,3.6,1.4c-0.9,1.5-2.8,1.5-4.3,2.3  c-1.3,0.7-2.7,1.9-4,2.7c-2,1.3-6.4,8.1-1.4,5.9c-1.3,1.7-1.7,3.2-1.5,5.2c0.4,0,0.9,0.2,1.3,0.1c-1.1,1.3-2.1,4.3-0.7,5.6  c-0.2-4.4,4.5-3.9,7.6-4c-2.5,2.8-4,7.6-3.4,11.3c0.7-0.6,1.5-1.4,2.3-2.3c0,1.5-1.4,3-1.7,4.5c-0.2,1.4-0.1,3.2,0,4.6  c0.1,1.8,0.2,3.7-0.6,5.6c-0.5,1.1-2.3,1.9-2,3c0.9,0.2,1.9-0.2,2.3-1.2c0,1.1,0.2,2.6-0.2,3.6c-0.6,1.1-1.7,0.8-2.4,1.5  c2.7,1.1,3.7,0.6,5.9-0.8c1.1,3-1.9,4.6-0.8,5.9c0.8-0.5,2-0.9,2.8-1.2c-1.1,2.5-3,6.9-1.4,9.6c0.5-0.9,0.9-2,1.8-2.8  c-0.9,1.1-0.4,4-0.4,5.6c0,1.1,0.1,2-0.2,3c-0.4,0.9-1.3,1.5-1.1,2.6c1.1-0.2,2.1-1.1,3.2-0.9c0.5,2.5-0.2,2.6-1.9,4.3  c0.8,0.2,1.9,0.1,2.5-0.5c-0.5,1.1-1.5,1.7-2.4,2.3c1.4,0,4.3-0.7,6.5-2c0.1,0.6,0.1,1.1,0,1.3c-1.3,2.6-19.3,18.6-22,23.4  c-2.6,4.6-10.7,10.7-18,13.3c-7.4,2.6-32.6,14.7-42.6,22c-10,7.4-22.7,24-36,48c-13.3,24-18,98.6-18,116.7c0,18,10.7,39.3,20.7,56.6  c10,17.3,31.3,18.6,31.3,18.6l2.6,10c0,0-3.3,13.3-11.3,36.7c-8.1,23.4-66.8,167.2-73.5,195.3c-6.6,28-39.3,180.7-39.3,180.7  s12,1.3,22,4c10,2.7,12,10,23.4,10c11.4,0,26.7-0.7,26.7-0.7l-4,47.4c0,0,56.6,4.6,71.3,5.3c14.7,0.7,54.6-0.7,54.6-0.7  s7.4,83.3,8,92.7c0.7,9.4-5.3,33.4-8.7,45.3c-3.3,12-17.3,36.7-19.9,42c-2.6,5.3,3.3,12.7,3.3,12.7v7.4l48,4c0,0,8-5.3,10-8.7  c2-3.3,4.6-19.9,8.7-32c4-12.1,0-21.4,0-25.3s-2-29.3-3.3-38c-1.3-8.7,5.3-42.6,11.3-64c6.1-21.4,11.3-45.3,11.3-45.3l44.6-7.4  c0,0,4.6,24.7,4.6,29.3s2.6,45.9,2.6,52.7c0,6.8-2,18-8,39.3c-6.1,21.4,0,28.6,0,28.6l4,17.3c0,0,25.3,1.3,30,0  c4.6-1.3,8.7-13.3,30-22c21.4-8.7,21.4-13.3,22-26.7c0.7-13.3-10-14.7-19.3-18c-9.4-3.3-13.3-6.6-16-8.7c-2.6-2-4-8.7-4.6-21.4  c-0.6-12.7,11.3-77.3,11.3-77.3h4c0,0,0,0,2.6-1.3c2.6-1.3,4-27.3,4-27.3s4,0.7,9.4,0s12.7-8,12.7-8s4.6-52,10.7-108.6  c6.1-56.6,16-119.3,18.6-148.6c2.6-29.3,0-60.7,0-60.7s11.3,15.3,16,16.4c4.6,0.9,11.3-3.7,11.3-3.7s3.3,8,6.1,11.3  c2.6,3.3,4.6,6.6,7.4,12c2.6,5.3,10,5.3,10,8c0,2.6,9.4,8.7,12.7,8c3.3-0.7,5.3-4.6,10-4c4.6,0.7,6.1-2,8.5-6.1  c2.6-4,2.7-8,10.8-22.7c8-14.7,3.3-27.1,3.3-27.1s6.1,1.1,6.6-4.3c0.7-5.3,0-31.3,0-31.3s3.3,0,4.6-4.6c1.3-4.6-4.6-15.3-4.6-15.3  s6.6-1.3,8.7-5.3c2-4-3.3-26-3.3-26s6.6-6.6,7.7-8.7s2.3-13.3,0.2-38c-2-24.7,7.4-51.3,7.4-51.3s-0.7,13.3,0,19.9s1.3,30.6,0.1,40.7  c-1.2,10,5.8,20.7,9.3,24s-0.8,14-2.7,20.7c-1.9,6.6-4.6,18.6-5.9,59.3c-1.3,40.7,0,30,0,30s1.3,16,0.1,28.6  c-1.2,12.7,5.8,10,5.8,10s-3.3,10.7-5.3,19.3c-2,8.7,2.6,51.3,4,77.3c1.3,26,8,44,12,48c4,3.9-2,19.9,0,40l4.6,27.3c0,0,0,0-2,7.4  s-2.6,31.3-2,44c0.7,12.7,3.3,68.6,8.7,108.6c5.3,40,28.6,73.4,28.6,73.4l3.3,55.3l4.6,1.3c0,0,2.6,3.3,4.6,8c2,4.6,0.7,13.3-5.3,24  c-6.1,10.7,2,14.7,2,18s2.6,15.3,2.6,15.3s68.6-4.6,70.6-4.6s6.6-12,6.6-12s16.6-2.6,19.9-9.4c3.3-6.6-4-18.6-6.1-21.4  c-2-2.7-2-21.4,0-22c2-0.7,3.3-5.3,4.6-8c1.3-2.6,0-40,0-65.3s-6.1-135.3-2-168c4-32.6,1.3-87.4,3.3-104c2-16.6,0.7-64,0.7-64  s6.6,4.6,7.4,6.6c0.7,2,0,16.6-0.7,26.7c-0.7,10.1,4.6,26.7,4.6,40.7s-0.7,50.7-5.3,76c-4.6,25.3-4,51.3-8,89.3  c-3.9,38,8,135.3,8,135.3l4,2.6c0,0,0,0-2,4.6c-2,4.6,1.3,21.4,1.3,21.4s37.3,3.3,50,2.6c12.7-0.7,19.9-16,23.4-20.7  c3.3-4.6,19.3-3.3,27.3-8.7c8-5.3,4-12,3.3-23.4c-0.7-11.3-4-16-4-16s4-2,5.3-6.1s-2.6-53.3-4-59.9c-1.3-6.6,4.6-20.7,8.7-48  c4-27.3,2.6-87.4,4-118c1.3-30.6-6.1-28.6-6.1-33.9s6.1-21.4,2.6-30c-3.3-8.7-3.3-15.3-1.3-24.7c2-9.4,8-16.6,6.6-22s4-14,10-18  s14.7-24.7,16-34.7c1.3-10-9.9-35.4-3.3-47.4c2.1-3.9,3.6-0.4,4.6-2.7c1.8,1.7,3.7-3.7,5.3-3.2l105.5,519.5l-1.4,0.2l4.6,35.4  l20.7-4L1284,1310.2z M1162.2,783.9c0.8-6.5-7.1-0.4-7.1-0.4l-0.5-12c2.8,2.4,5.9,4.3,8.1,6.1l1.2,5.8  C1163.4,783.7,1163,783.8,1162.2,783.9z M1162,653.6c1.3,10.7,5.3,6.1-0.7,18.6c-6.1,12.7-0.7,6.1-4.6,16c-4,10,4,10,2,14  c-1.1,2.1-3.8,4.2-6.4,6.1c-0.1,0-0.1,0.1-0.2,0.1c-0.9-10.1-2.4-28.5,0-29.4c3.3-1.3,2-10.7,4-25.3c2-14.7-3.3-23.4-4-36  c-0.7-12.7-6.1-56.6-6.1-56.6s4.6,13.3,4,21.4c-0.6,8.1,6.6,28,6.1,37.3c-0.7,9.4,10,5.3,11.3,14.7  C1168.6,643.6,1160.7,643,1162,653.6z"/>
</svg>
